# Blender 4.2.0
# www.blender.org
mtllib grass_blades.mtl
o Grass
v -0.697745 -5.704170 -1.049653
v -0.619434 -3.337915 -0.971342
v -0.619434 -3.337915 0.267526
v 0.619434 -3.337915 0.267526
v 0.619434 -3.337915 -0.971342
v 0.261240 2.398535 -0.275018
v 0.261240 2.398535 0.296614
v -0.281171 2.398535 -0.249127
v -0.241309 2.398535 0.227531
v -0.337810 1.677266 0.337810
v -0.337810 1.677266 -0.337810
v 0.337810 1.677266 0.337810
v 0.337810 1.677266 -0.337810
v 0.433953 0.051600 -0.433953
v 0.000000 4.195394 -0.000000
v 0.000000 4.195394 -0.000000
v 0.000000 4.195394 -0.000000
v 0.502492 -1.571121 -0.558388
v 0.433953 0.051600 0.433953
v 0.502492 -1.571121 0.446596
v 0.000000 4.195394 -0.000000
v 0.697745 -5.704170 -1.049653
v 0.697745 -5.704170 0.345837
v -0.697745 -5.704170 0.345837
v -0.433953 0.051600 -0.433953
v -0.433953 0.051600 0.433953
v -0.502492 -1.571121 0.446596
v -0.502492 -1.571121 -0.558388
vn -0.9983 0.0590 -0.0000
vn -0.0582 0.1051 0.9928
vn -0.0000 0.2276 -0.9738
vn 0.9983 0.0590 -0.0000
vn 0.9995 0.0331 -0.0000
vn -0.0000 0.0078 1.0000
vn -0.0000 -1.0000 -0.0000
vn 0.9978 0.0660 -0.0000
vn -0.0000 0.0590 -0.9983
vn -0.0000 0.0590 0.9983
vn -0.0211 0.1041 -0.9943
vn -0.9991 0.0422 -0.0000
vn -0.9938 0.1060 0.0344
vn -0.0000 0.0331 0.9995
vn -0.0000 -0.1008 0.9949
vn -0.9978 0.0660 -0.0000
vn -0.0000 0.0765 -0.9971
vn 0.9944 0.1056 -0.0000
vn -0.0472 0.1444 -0.9884
vn -0.9995 0.0331 -0.0000
vn -1.0000 -0.0000 -0.0000
vn 0.9896 0.1439 -0.0000
vn -0.9863 0.1429 0.0825
vn 0.9991 0.0422 -0.0000
vn -0.0000 0.0331 -0.9995
vn -0.1348 0.1423 0.9806
vt 0.625000 1.000000
vt 0.625000 0.750000
vt 0.625000 0.500000
vt 0.625000 0.250000
vt 0.125000 0.500000
vt 0.125000 0.750000
vt 0.875000 0.750000
vt 0.875000 0.500000
vt 0.375000 0.250000
vt 0.375000 0.500000
vt 0.375000 0.000000
vt 0.625000 0.000000
vt 0.375000 0.750000
vt 0.375000 0.750000
vt 0.375000 1.000000
s 0
f 25/1/1 26/2/1 10/2/1 11/1/1
f 10/3/2 12/4/2 7/4/2 9/3/2
f 28/5/3 18/6/3 5/6/3 2/5/3
f 19/7/4 14/8/4 13/8/4 12/7/4
f 5/3/5 4/2/5 23/2/5 22/3/5
f 20/9/6 19/4/6 26/3/6 27/10/6
f 1/11/7 22/12/7 23/4/7 24/9/7
f 18/3/8 20/2/8 4/2/8 5/3/8
f 14/13/9 25/10/9 11/10/9 13/14/9
f 26/3/10 19/4/10 12/4/10 10/3/10
f 13/14/11 11/10/11 8/10/11 6/13/11
f 27/13/12 26/2/12 25/1/12 28/15/12
f 11/1/13 10/2/13 9/2/13 8/1/13
f 4/9/14 3/10/14 24/10/14 23/9/14
f 20/9/15 27/10/15 3/10/15 4/9/15
f 27/13/16 28/15/16 2/15/16 3/13/16
f 28/5/17 25/10/17 14/13/17 18/6/17
f 12/7/18 13/8/18 6/8/18 7/7/18
f 6/13/19 8/10/19 16/10/19 21/13/19
f 3/13/20 2/15/20 1/15/20 24/13/20
f 21/10/21 16/3/21 15/2/21 17/13/21
f 7/7/22 6/8/22 21/8/22 17/7/22
f 8/1/23 9/2/23 15/2/23 16/1/23
f 18/3/24 14/8/24 19/7/24 20/2/24
f 2/5/25 5/6/25 22/6/25 1/5/25
f 9/3/26 7/4/26 17/4/26 15/3/26
o Grass.001
v -0.697745 -5.726491 -2.790727
v -0.619434 -3.360236 -3.069559
v -0.619434 -3.360236 -1.830691
v 0.619434 -3.360236 -1.830691
v 0.619434 -3.360236 -3.069559
v 0.261240 2.376213 -2.373235
v 0.261240 2.376213 -1.801602
v -0.281171 2.376214 -2.347343
v -0.241309 2.376213 -1.870686
v -0.337810 1.654945 -1.760406
v -0.337810 1.654945 -2.436027
v 0.337810 1.654945 -1.760406
v 0.337810 1.654945 -2.436027
v 0.433953 0.029278 -2.889313
v 0.000000 4.173072 -2.098217
v 0.000000 4.173072 -2.098217
v 0.000000 4.173072 -2.098217
v 0.502492 -1.593442 -2.656604
v 0.433953 0.029278 -2.021407
v 0.502492 -1.593442 -1.651621
v 0.000000 4.173072 -2.098217
v 0.697745 -5.726491 -2.790727
v 0.697745 -5.726491 -1.395237
v -0.697745 -5.726491 -1.395237
v -0.433953 0.029278 -2.889313
v -0.433953 0.029278 -2.021407
v -0.502492 -1.593442 -1.651621
v -0.502492 -1.593442 -2.656604
vn -0.9983 0.0590 -0.0000
vn -0.0582 0.1051 0.9928
vn -0.0000 0.2276 -0.9738
vn 0.9983 0.0590 -0.0000
vn 0.9995 0.0331 -0.0000
vn -0.0000 0.2222 0.9750
vn -0.0000 -1.0000 -0.0000
vn 0.9978 0.0660 -0.0000
vn -0.0000 0.2686 -0.9633
vn -0.0000 -0.1585 0.9874
vn -0.0211 0.1041 -0.9943
vn -0.9991 0.0422 -0.0000
vn -0.9938 0.1060 0.0344
vn -0.0000 0.1810 0.9835
vn -0.0000 -0.1008 0.9949
vn -0.9978 0.0660 -0.0000
vn -0.0000 -0.1420 -0.9899
vn 0.9944 0.1056 -0.0000
vn -0.0472 0.1444 -0.9884
vn -0.9995 0.0331 -0.0000
vn -1.0000 -0.0000 -0.0000
vn 0.9896 0.1439 -0.0000
vn -0.9863 0.1429 0.0825
vn 0.9991 0.0422 -0.0000
vn -0.0000 -0.1170 -0.9931
vn -0.1348 0.1423 0.9806
vt 0.625000 1.000000
vt 0.625000 0.750000
vt 0.625000 0.500000
vt 0.625000 0.250000
vt 0.125000 0.500000
vt 0.125000 0.750000
vt 0.875000 0.750000
vt 0.875000 0.500000
vt 0.375000 0.250000
vt 0.375000 0.500000
vt 0.375000 0.000000
vt 0.625000 0.000000
vt 0.375000 0.750000
vt 0.375000 0.750000
vt 0.375000 1.000000
s 0
f 53/16/27 54/17/27 38/17/27 39/16/27
f 38/18/28 40/19/28 35/19/28 37/18/28
f 56/20/29 46/21/29 33/21/29 30/20/29
f 47/22/30 42/23/30 41/23/30 40/22/30
f 33/18/31 32/17/31 51/17/31 50/18/31
f 48/24/32 47/19/32 54/18/32 55/25/32
f 29/26/33 50/27/33 51/19/33 52/24/33
f 46/18/34 48/17/34 32/17/34 33/18/34
f 42/28/35 53/25/35 39/25/35 41/29/35
f 54/18/36 47/19/36 40/19/36 38/18/36
f 41/29/37 39/25/37 36/25/37 34/28/37
f 55/28/38 54/17/38 53/16/38 56/30/38
f 39/16/39 38/17/39 37/17/39 36/16/39
f 32/24/40 31/25/40 52/25/40 51/24/40
f 48/24/41 55/25/41 31/25/41 32/24/41
f 55/28/42 56/30/42 30/30/42 31/28/42
f 56/20/43 53/25/43 42/28/43 46/21/43
f 40/22/44 41/23/44 34/23/44 35/22/44
f 34/28/45 36/25/45 44/25/45 49/28/45
f 31/28/46 30/30/46 29/30/46 52/28/46
f 49/25/47 44/18/47 43/17/47 45/28/47
f 35/22/48 34/23/48 49/23/48 45/22/48
f 36/16/49 37/17/49 43/17/49 44/16/49
f 46/18/50 42/23/50 47/22/50 48/17/50
f 30/20/51 33/21/51 50/21/51 29/20/51
f 37/18/52 35/19/52 45/19/52 43/18/52
o Grass.002
v -0.697745 -5.704170 2.097671
v -0.619434 -3.427201 2.287589
v -0.619434 -3.427201 3.526457
v 0.619434 -3.427201 3.526457
v 0.619434 -3.427201 2.287589
v 0.261240 2.666392 2.202662
v 0.261240 2.666392 2.774295
v -0.281171 2.666393 2.228554
v -0.241309 2.666392 2.705211
v -0.337810 1.409409 2.681562
v -0.337810 1.409409 2.005942
v 0.337810 1.409409 2.681562
v 0.337810 1.409409 2.005942
v 0.433953 -0.149293 2.311585
v 0.000000 3.369500 3.705360
v 0.000000 3.369500 3.705360
v 0.000000 3.369500 3.705360
v 0.502492 -1.660407 2.120186
v 0.433953 -0.149293 3.179491
v 0.502492 -1.660407 3.125170
v 0.000000 3.369500 3.705360
v 0.697745 -5.704170 2.097671
v 0.697745 -5.704170 3.493161
v -0.697745 -5.704170 3.493161
v -0.433953 -0.149293 2.311585
v -0.433953 -0.149293 3.179491
v -0.502492 -1.660407 3.125170
v -0.502492 -1.660407 2.120186
vn -0.9981 0.0616 -0.0000
vn -0.0585 -0.0457 0.9972
vn -0.0000 -0.0943 -0.9955
vn 0.9981 0.0616 -0.0000
vn 0.9994 0.0344 -0.0000
vn -0.0000 -0.0359 0.9994
vn -0.0000 -1.0000 -0.0000
vn 0.9978 0.0660 -0.0000
vn -0.0000 -0.1924 -0.9813
vn -0.0000 0.3043 0.9526
vn -0.0210 0.1643 -0.9862
vn -0.9990 0.0453 -0.0000
vn -0.9978 0.0574 0.0345
vn -0.0000 -0.0146 0.9999
vn -0.0000 0.2215 0.9752
vn -0.9978 0.0660 -0.0000
vn -0.0000 0.1257 -0.9921
vn 0.9981 0.0608 -0.0000
vn -0.0204 0.9042 -0.4266
vn -0.9994 0.0344 -0.0000
vn -1.0000 -0.0000 -0.0000
vn 0.9374 0.3483 -0.0000
vn -0.9725 0.2181 0.0813
vn 0.9990 0.0453 -0.0000
vn -0.0000 0.0831 -0.9965
vn -0.0806 -0.8062 0.5862
vt 0.625000 1.000000
vt 0.625000 0.750000
vt 0.625000 0.500000
vt 0.625000 0.250000
vt 0.125000 0.500000
vt 0.125000 0.750000
vt 0.875000 0.750000
vt 0.875000 0.500000
vt 0.375000 0.250000
vt 0.375000 0.500000
vt 0.375000 0.000000
vt 0.625000 0.000000
vt 0.375000 0.750000
vt 0.375000 0.750000
vt 0.375000 1.000000
s 0
f 81/31/53 82/32/53 66/32/53 67/31/53
f 66/33/54 68/34/54 63/34/54 65/33/54
f 84/35/55 74/36/55 61/36/55 58/35/55
f 75/37/56 70/38/56 69/38/56 68/37/56
f 61/33/57 60/32/57 79/32/57 78/33/57
f 76/39/58 75/34/58 82/33/58 83/40/58
f 57/41/59 78/42/59 79/34/59 80/39/59
f 74/33/60 76/32/60 60/32/60 61/33/60
f 70/43/61 81/40/61 67/40/61 69/44/61
f 82/33/62 75/34/62 68/34/62 66/33/62
f 69/44/63 67/40/63 64/40/63 62/43/63
f 83/43/64 82/32/64 81/31/64 84/45/64
f 67/31/65 66/32/65 65/32/65 64/31/65
f 60/39/66 59/40/66 80/40/66 79/39/66
f 76/39/67 83/40/67 59/40/67 60/39/67
f 83/43/68 84/45/68 58/45/68 59/43/68
f 84/35/69 81/40/69 70/43/69 74/36/69
f 68/37/70 69/38/70 62/38/70 63/37/70
f 62/43/71 64/40/71 72/40/71 77/43/71
f 59/43/72 58/45/72 57/45/72 80/43/72
f 77/40/73 72/33/73 71/32/73 73/43/73
f 63/37/74 62/38/74 77/38/74 73/37/74
f 64/31/75 65/32/75 71/32/75 72/31/75
f 74/33/76 70/38/76 75/37/76 76/32/76
f 58/35/77 61/36/77 78/36/77 57/35/77
f 65/33/78 63/34/78 73/34/78 71/33/78
o Grass.003
v -0.697745 -5.573481 4.935376
v -0.619434 -3.296512 5.125294
v -0.619434 -3.296512 6.364162
v 0.619434 -3.296512 6.364162
v 0.619434 -3.296512 5.125294
v 0.243145 1.970307 5.045480
v 0.273076 2.524818 5.181075
v -0.295833 2.031978 5.021406
v -0.231166 2.491672 5.136692
v -0.416555 2.181878 6.344806
v -0.451931 1.526495 6.184545
v 0.256478 2.136346 6.382442
v 0.221102 1.480963 6.222181
v 0.079707 0.162883 6.642859
v 0.110822 3.609693 4.705460
v 0.110822 3.609693 4.705460
v 0.110822 3.609693 4.705460
v 0.502492 -1.683088 6.287097
v 0.245972 -0.493705 7.185545
v 0.502492 -1.683088 7.292081
v 0.110822 3.609693 4.705460
v 0.697745 -5.573481 4.935376
v 0.697745 -5.573481 6.330866
v -0.697745 -5.573481 6.330866
v -0.764642 -0.037275 6.659377
v -0.598377 -0.693863 7.202064
v -0.502492 -1.683088 7.292081
v -0.502492 -1.683089 6.287097
vn -0.9443 0.1866 0.2712
vn -0.0092 0.9606 0.2776
vn -0.0000 0.5844 -0.8115
vn 0.9540 -0.1216 -0.2739
vn 0.9994 0.0344 -0.0000
vn -0.0008 0.0897 0.9960
vn -0.0000 -1.0000 -0.0000
vn 0.9974 0.0723 -0.0000
vn 0.0441 -0.3028 -0.9520
vn -0.0428 0.2898 0.9561
vn -0.0610 -0.9169 -0.3945
vn -0.9891 -0.1394 0.0471
vn -0.9881 0.1141 -0.1031
vn -0.0000 -0.0146 0.9999
vn -0.0000 -0.4986 0.8669
vn -0.9974 0.0723 -0.0000
vn -0.0302 0.1983 -0.9797
vn 0.9986 -0.0531 -0.0034
vn 0.0207 -0.2014 -0.9793
vn -0.9994 0.0344 -0.0000
vn -1.0000 -0.0000 -0.0000
vn 0.9582 0.0181 -0.2856
vn -0.9493 0.1953 -0.2464
vn 0.9756 0.2193 -0.0118
vn -0.0000 0.0831 -0.9965
vn -0.1060 0.3859 0.9164
vt 0.625000 1.000000
vt 0.625000 0.750000
vt 0.625000 0.500000
vt 0.625000 0.250000
vt 0.125000 0.500000
vt 0.125000 0.750000
vt 0.875000 0.750000
vt 0.875000 0.500000
vt 0.375000 0.250000
vt 0.375000 0.500000
vt 0.375000 0.000000
vt 0.625000 0.000000
vt 0.375000 0.750000
vt 0.375000 0.750000
vt 0.375000 1.000000
s 0
f 109/46/79 110/47/79 94/47/79 95/46/79
f 94/48/80 96/49/80 91/49/80 93/48/80
f 112/50/81 102/51/81 89/51/81 86/50/81
f 103/52/82 98/53/82 97/53/82 96/52/82
f 89/48/83 88/47/83 107/47/83 106/48/83
f 104/54/84 103/49/84 110/48/84 111/55/84
f 85/56/85 106/57/85 107/49/85 108/54/85
f 102/48/86 104/47/86 88/47/86 89/48/86
f 98/58/87 109/55/87 95/55/87 97/59/87
f 110/48/88 103/49/88 96/49/88 94/48/88
f 97/59/89 95/55/89 92/55/89 90/58/89
f 111/58/90 110/47/90 109/46/90 112/60/90
f 95/46/91 94/47/91 93/47/91 92/46/91
f 88/54/92 87/55/92 108/55/92 107/54/92
f 104/54/93 111/55/93 87/55/93 88/54/93
f 111/58/94 112/60/94 86/60/94 87/58/94
f 112/50/95 109/55/95 98/58/95 102/51/95
f 96/52/96 97/53/96 90/53/96 91/52/96
f 90/58/97 92/55/97 100/55/97 105/58/97
f 87/58/98 86/60/98 85/60/98 108/58/98
f 105/55/99 100/48/99 99/47/99 101/58/99
f 91/52/100 90/53/100 105/53/100 101/52/100
f 92/46/101 93/47/101 99/47/101 100/46/101
f 102/48/102 98/53/102 103/52/102 104/47/102
f 86/50/103 89/51/103 106/51/103 85/50/103
f 93/48/104 91/49/104 101/49/104 99/48/104
