# Blender 4.2.0
# www.blender.org
mtllib lillypad_lowpoly.mtl
o Sphere
v 0.000000 4.203541 -0.634251
v 0.141603 8.557821 -0.365518
v 0.229118 8.224376 -0.591421
v 0.229118 4.203541 -0.591421
v 0.141603 3.870095 -0.365518
v 0.264081 8.557821 -0.289683
v 0.427292 8.224376 -0.468717
v 0.427292 4.203541 -0.468717
v 0.264081 3.870095 -0.289683
v 0.350894 8.557821 -0.174724
v 0.567758 8.224376 -0.282710
v 0.567758 4.203541 -0.282710
v 0.350894 3.870095 -0.174724
v 0.390316 8.557821 -0.036168
v 0.631545 8.224376 -0.058521
v 0.631545 4.203541 -0.058521
v 0.390316 3.870095 -0.036168
v 0.377025 8.557821 0.107273
v 0.610039 8.224376 0.173571
v 0.610039 4.203541 0.173571
v 0.377025 3.870095 0.107273
v 0.312814 8.557821 0.236226
v 0.506143 8.224376 0.382221
v 0.506143 4.203541 0.382221
v 0.312814 3.870095 0.236226
v 0.206355 8.557821 0.333275
v 0.333890 8.224376 0.539251
v 0.333890 4.203541 0.539251
v 0.206355 3.870095 0.333275
v 0.072028 8.557821 0.385314
v 0.116543 8.224376 0.623451
v 0.116543 4.203541 0.623451
v 0.072028 3.870095 0.385314
v -0.072028 8.557821 0.385314
v -0.116543 8.224376 0.623451
v -0.116543 4.203541 0.623451
v -0.072028 3.870095 0.385314
v -0.206355 8.557821 0.333275
v -0.333890 8.224376 0.539251
v -0.333890 4.203541 0.539251
v -0.206355 3.870095 0.333275
v -0.312813 8.557821 0.236226
v -0.506143 8.224376 0.382221
v -0.506143 4.203541 0.382221
v -0.312813 3.870095 0.236226
v 0.000000 8.685184 0.000000
v -0.377025 8.557821 0.107273
v -0.610039 8.224376 0.173571
v -0.610039 4.203541 0.173571
v -0.377025 3.870095 0.107273
v 0.000000 3.742731 0.000000
v -0.390316 8.557821 -0.036168
v -0.631545 8.224376 -0.058521
v -0.631545 4.203541 -0.058521
v -0.390316 3.870095 -0.036168
v -0.350894 8.557821 -0.174724
v -0.567758 8.224376 -0.282710
v -0.567758 4.203541 -0.282710
v -0.350894 3.870095 -0.174724
v -0.264081 8.557821 -0.289683
v -0.427292 8.224376 -0.468717
v -0.427292 4.203541 -0.468717
v -0.264081 3.870095 -0.289683
v -0.141603 8.557821 -0.365518
v -0.229118 8.224376 -0.591421
v -0.229118 4.203541 -0.591421
v -0.141603 3.870095 -0.365518
v 0.000000 8.557821 -0.391988
v 0.000000 8.224376 -0.634251
v 0.000000 3.870095 -0.391988
v 0.000000 -1.106508 -0.245655
v 0.000000 0.946236 -0.245655
v 0.163344 -1.106508 -0.177995
v 0.163344 0.946236 -0.177995
v 0.231003 -1.106508 -0.014652
v 0.231003 0.946236 -0.014652
v 0.163344 -1.106508 0.148692
v 0.163344 0.946236 0.148692
v 0.000000 -1.106508 0.216351
v 0.000000 0.946236 0.216351
v -0.163344 -1.106508 0.148692
v -0.163344 0.946236 0.148692
v -0.231003 -1.106508 -0.014652
v -0.231003 0.946236 -0.014652
v -0.163344 -1.106508 -0.177995
v -0.163344 0.946236 -0.177995
v 0.000000 2.934359 -0.252990
v 0.163344 2.934359 -0.185331
v 0.231003 2.934359 -0.021987
v 0.163344 2.934359 0.141357
v 0.000000 2.934359 0.209016
v -0.163344 2.934359 0.141357
v -0.231003 2.934359 -0.021987
v -0.163344 2.934359 -0.185331
v 0.000000 5.118036 -0.252990
v 0.163344 5.118036 -0.185331
v 0.231003 5.118036 -0.021987
v 0.163344 5.118036 0.141357
v 0.000000 5.118036 0.209016
v -0.163344 5.118036 0.141357
v -0.231003 5.118036 -0.021987
v -0.163344 5.118036 -0.185331
v 0.000000 7.301712 -0.252990
v 0.163344 7.301712 -0.185331
v 0.231003 7.301712 -0.021987
v 0.163344 7.301712 0.141357
v 0.000000 7.301712 0.209016
v -0.163344 7.301712 0.141357
v -0.231003 7.301712 -0.021987
v -0.163344 7.301712 -0.185331
vn 0.0577 -0.9495 -0.3085
vn 0.1837 -0.0000 -0.9830
vn 0.0577 0.9495 -0.3085
vn 0.1495 -0.5812 -0.7999
vn 0.1495 0.5812 -0.7999
vn 0.4284 -0.5812 -0.6919
vn 0.4284 0.5812 -0.6919
vn 0.1652 -0.9495 -0.2668
vn 0.5264 -0.0000 -0.8502
vn 0.1652 0.9495 -0.2668
vn 0.6494 -0.5812 -0.4904
vn 0.6494 0.5812 -0.4904
vn 0.2505 -0.9495 -0.1891
vn 0.7980 -0.0000 -0.6026
vn 0.2504 0.9495 -0.1891
vn 0.7827 -0.5812 -0.2227
vn 0.7827 0.5812 -0.2227
vn 0.3019 -0.9495 -0.0859
vn 0.9618 -0.0000 -0.2737
vn 0.3019 0.9495 -0.0859
vn 0.8103 -0.5812 0.0751
vn 0.8103 0.5812 0.0751
vn 0.3125 -0.9495 0.0290
vn 0.9957 -0.0000 0.0923
vn 0.3125 0.9495 0.0290
vn 0.7285 -0.5812 0.3627
vn 0.7285 0.5812 0.3627
vn 0.2809 -0.9495 0.1399
vn 0.8952 -0.0000 0.4457
vn 0.2809 0.9495 0.1399
vn 0.5482 -0.5812 0.6014
vn 0.5482 0.5812 0.6014
vn 0.2114 -0.9495 0.2319
vn 0.6737 -0.0000 0.7390
vn 0.2114 0.9495 0.2319
vn 0.2940 -0.5812 0.7588
vn 0.2940 0.5812 0.7588
vn 0.1134 -0.9495 0.2927
vn 0.3612 -0.0000 0.9325
vn 0.1134 0.9495 0.2927
vn -0.0000 -0.5812 0.8138
vn -0.0000 0.5812 0.8138
vn -0.0000 -0.9495 0.3138
vn -0.0000 -0.0000 1.0000
vn -0.0000 0.9495 0.3138
vn -0.2940 -0.5812 0.7588
vn -0.2940 0.5812 0.7588
vn -0.1134 -0.9495 0.2927
vn -0.3612 -0.0000 0.9325
vn -0.1134 0.9495 0.2927
vn -0.5482 -0.5812 0.6014
vn -0.5482 0.5812 0.6014
vn -0.2114 -0.9495 0.2319
vn -0.6737 -0.0000 0.7390
vn -0.2114 0.9495 0.2319
vn -0.7285 -0.5812 0.3627
vn -0.7285 0.5812 0.3627
vn -0.2809 -0.9495 0.1399
vn -0.8952 -0.0000 0.4457
vn -0.2809 0.9495 0.1399
vn -0.8103 -0.5812 0.0751
vn -0.8103 0.5812 0.0751
vn -0.3125 -0.9495 0.0290
vn -0.9957 -0.0000 0.0923
vn -0.3125 0.9495 0.0290
vn -0.7827 -0.5812 -0.2227
vn -0.7827 0.5812 -0.2227
vn -0.3019 -0.9495 -0.0859
vn -0.9618 -0.0000 -0.2737
vn -0.3019 0.9495 -0.0859
vn -0.6494 -0.5812 -0.4904
vn -0.6494 0.5812 -0.4904
vn -0.2505 -0.9495 -0.1891
vn -0.7980 -0.0000 -0.6026
vn -0.2504 0.9495 -0.1891
vn -0.4284 -0.5812 -0.6919
vn -0.4284 0.5812 -0.6919
vn -0.1652 -0.9495 -0.2668
vn -0.5264 -0.0000 -0.8502
vn -0.1652 0.9495 -0.2668
vn -0.1495 -0.5812 -0.7999
vn -0.1495 0.5812 -0.7999
vn -0.0577 -0.9495 -0.3085
vn -0.1837 -0.0000 -0.9830
vn -0.0577 0.9495 -0.3085
vn 0.3827 -0.0000 -0.9239
vn 0.9239 -0.0000 -0.3827
vn 0.9239 -0.0000 0.3827
vn 0.3827 -0.0000 0.9239
vn -0.3827 -0.0000 0.9239
vn -0.9239 -0.0000 0.3827
vn 0.9239 0.0014 0.3827
vn -0.9239 -0.0000 -0.3827
vn -0.3827 -0.0000 -0.9239
vn -0.0000 -1.0000 -0.0000
vn -0.9239 0.0014 0.3827
vn 0.3827 0.0034 0.9239
vn -0.9239 -0.0014 -0.3827
vn 0.9239 -0.0014 -0.3827
vn -0.3827 0.0034 0.9239
vn -0.3827 -0.0034 -0.9239
vn 0.3827 -0.0034 -0.9239
vn -0.0000 1.0000 -0.0000
vt 0.676471 0.000000
vt 0.705882 0.200000
vt 0.647059 0.200000
vt 0.705882 0.400000
vt 0.705882 0.600000
vt 0.647059 0.600000
vt 0.647059 0.400000
vt 0.705882 0.800000
vt 0.676471 1.000000
vt 0.647059 0.800000
vt 0.588235 0.400000
vt 0.588235 0.200000
vt 0.588235 0.800000
vt 0.588235 0.600000
vt 0.617647 0.000000
vt 0.617647 1.000000
vt 0.529412 0.400000
vt 0.529412 0.200000
vt 0.529412 0.800000
vt 0.529412 0.600000
vt 0.558824 0.000000
vt 0.558824 1.000000
vt 0.470588 0.400000
vt 0.470588 0.200000
vt 0.470588 0.800000
vt 0.470588 0.600000
vt 0.500000 0.000000
vt 0.500000 1.000000
vt 0.411765 0.400000
vt 0.411765 0.200000
vt 0.411765 0.800000
vt 0.411765 0.600000
vt 0.441177 0.000000
vt 0.441177 1.000000
vt 0.352941 0.400000
vt 0.352941 0.200000
vt 0.352941 0.800000
vt 0.352941 0.600000
vt 0.382353 0.000000
vt 0.382353 1.000000
vt 0.294118 0.400000
vt 0.294118 0.200000
vt 0.294118 0.800000
vt 0.294118 0.600000
vt 0.323529 0.000000
vt 0.323529 1.000000
vt 0.235294 0.400000
vt 0.235294 0.200000
vt 0.235294 0.800000
vt 0.235294 0.600000
vt 0.264706 0.000000
vt 0.264706 1.000000
vt 0.176471 0.400000
vt 0.176471 0.200000
vt 0.176471 0.800000
vt 0.176471 0.600000
vt 0.205882 0.000000
vt 0.205882 1.000000
vt 0.117647 0.400000
vt 0.117647 0.200000
vt 0.117647 0.800000
vt 0.117647 0.600000
vt 0.147059 0.000000
vt 0.147059 1.000000
vt 0.058824 0.400000
vt 0.058824 0.200000
vt 0.058824 0.800000
vt 0.058824 0.600000
vt 0.088235 0.000000
vt 0.088235 1.000000
vt 0.000000 0.400000
vt 0.000000 0.200000
vt 0.000000 0.800000
vt 0.000000 0.600000
vt 0.029412 0.000000
vt 0.029412 1.000000
vt 1.000000 0.200000
vt 1.000000 0.400000
vt 0.941176 0.400000
vt 0.941176 0.200000
vt 1.000000 0.600000
vt 1.000000 0.800000
vt 0.941176 0.800000
vt 0.941176 0.600000
vt 0.970588 0.000000
vt 0.970588 1.000000
vt 0.882353 0.400000
vt 0.882353 0.200000
vt 0.882353 0.800000
vt 0.882353 0.600000
vt 0.911765 0.000000
vt 0.911765 1.000000
vt 0.823529 0.400000
vt 0.823529 0.200000
vt 0.823529 0.800000
vt 0.823529 0.600000
vt 0.852941 0.000000
vt 0.852941 1.000000
vt 0.764706 0.400000
vt 0.764706 0.200000
vt 0.764706 0.800000
vt 0.764706 0.600000
vt 0.794118 0.000000
vt 0.794118 1.000000
vt 0.735294 0.000000
vt 0.735294 1.000000
vt 1.000000 0.500000
vt 1.000000 1.000000
vt 0.875000 1.000000
vt 0.875000 0.500000
vt 0.750000 1.000000
vt 0.750000 0.500000
vt 0.625000 1.000000
vt 0.625000 0.500000
vt 0.500000 1.000000
vt 0.500000 0.500000
vt 0.375000 1.000000
vt 0.375000 0.500000
vt 0.250000 1.000000
vt 0.250000 0.500000
vt 0.125000 1.000000
vt 0.125000 0.500000
vt 0.000000 1.000000
vt 0.000000 0.500000
vt 0.750000 0.490000
vt 0.919706 0.419706
vt 0.990000 0.250000
vt 0.919706 0.080294
vt 0.750000 0.010000
vt 0.580294 0.080294
vt 0.510000 0.250000
vt 0.580294 0.419706
vt 0.419706 0.419706
vt 0.250000 0.490000
vt 0.080294 0.419706
vt 0.010000 0.250000
vt 0.080294 0.080294
vt 0.250000 0.010000
vt 0.419706 0.080294
vt 0.490000 0.250000
s 0
f 51/1/1 70/2/1 5/3/1
f 1/4/2 69/5/2 3/6/2 4/7/2
f 68/8/3 46/9/3 2/10/3
f 70/2/4 1/4/4 4/7/4 5/3/4
f 69/5/5 68/8/5 2/10/5 3/6/5
f 5/3/6 4/7/6 8/11/6 9/12/6
f 3/6/7 2/10/7 6/13/7 7/14/7
f 51/15/8 5/3/8 9/12/8
f 4/7/9 3/6/9 7/14/9 8/11/9
f 2/10/10 46/16/10 6/13/10
f 9/12/11 8/11/11 12/17/11 13/18/11
f 7/14/12 6/13/12 10/19/12 11/20/12
f 51/21/13 9/12/13 13/18/13
f 8/11/14 7/14/14 11/20/14 12/17/14
f 6/13/15 46/22/15 10/19/15
f 13/18/16 12/17/16 16/23/16 17/24/16
f 11/20/17 10/19/17 14/25/17 15/26/17
f 51/27/18 13/18/18 17/24/18
f 12/17/19 11/20/19 15/26/19 16/23/19
f 10/19/20 46/28/20 14/25/20
f 17/24/21 16/23/21 20/29/21 21/30/21
f 15/26/22 14/25/22 18/31/22 19/32/22
f 51/33/23 17/24/23 21/30/23
f 16/23/24 15/26/24 19/32/24 20/29/24
f 14/25/25 46/34/25 18/31/25
f 21/30/26 20/29/26 24/35/26 25/36/26
f 19/32/27 18/31/27 22/37/27 23/38/27
f 51/39/28 21/30/28 25/36/28
f 20/29/29 19/32/29 23/38/29 24/35/29
f 18/31/30 46/40/30 22/37/30
f 25/36/31 24/35/31 28/41/31 29/42/31
f 23/38/32 22/37/32 26/43/32 27/44/32
f 51/45/33 25/36/33 29/42/33
f 24/35/34 23/38/34 27/44/34 28/41/34
f 22/37/35 46/46/35 26/43/35
f 29/42/36 28/41/36 32/47/36 33/48/36
f 27/44/37 26/43/37 30/49/37 31/50/37
f 51/51/38 29/42/38 33/48/38
f 28/41/39 27/44/39 31/50/39 32/47/39
f 26/43/40 46/52/40 30/49/40
f 33/48/41 32/47/41 36/53/41 37/54/41
f 31/50/42 30/49/42 34/55/42 35/56/42
f 51/57/43 33/48/43 37/54/43
f 32/47/44 31/50/44 35/56/44 36/53/44
f 30/49/45 46/58/45 34/55/45
f 37/54/46 36/53/46 40/59/46 41/60/46
f 35/56/47 34/55/47 38/61/47 39/62/47
f 51/63/48 37/54/48 41/60/48
f 36/53/49 35/56/49 39/62/49 40/59/49
f 34/55/50 46/64/50 38/61/50
f 41/60/51 40/59/51 44/65/51 45/66/51
f 39/62/52 38/61/52 42/67/52 43/68/52
f 51/69/53 41/60/53 45/66/53
f 40/59/54 39/62/54 43/68/54 44/65/54
f 38/61/55 46/70/55 42/67/55
f 45/66/56 44/65/56 49/71/56 50/72/56
f 43/68/57 42/67/57 47/73/57 48/74/57
f 51/75/58 45/66/58 50/72/58
f 44/65/59 43/68/59 48/74/59 49/71/59
f 42/67/60 46/76/60 47/73/60
f 50/77/61 49/78/61 54/79/61 55/80/61
f 48/81/62 47/82/62 52/83/62 53/84/62
f 51/85/63 50/77/63 55/80/63
f 49/78/64 48/81/64 53/84/64 54/79/64
f 47/82/65 46/86/65 52/83/65
f 55/80/66 54/79/66 58/87/66 59/88/66
f 53/84/67 52/83/67 56/89/67 57/90/67
f 51/91/68 55/80/68 59/88/68
f 54/79/69 53/84/69 57/90/69 58/87/69
f 52/83/70 46/92/70 56/89/70
f 59/88/71 58/87/71 62/93/71 63/94/71
f 57/90/72 56/89/72 60/95/72 61/96/72
f 51/97/73 59/88/73 63/94/73
f 58/87/74 57/90/74 61/96/74 62/93/74
f 56/89/75 46/98/75 60/95/75
f 63/94/76 62/93/76 66/99/76 67/100/76
f 61/96/77 60/95/77 64/101/77 65/102/77
f 51/103/78 63/94/78 67/100/78
f 62/93/79 61/96/79 65/102/79 66/99/79
f 60/95/80 46/104/80 64/101/80
f 67/100/81 66/99/81 1/4/81 70/2/81
f 65/102/82 64/101/82 68/8/82 69/5/82
f 51/105/83 67/100/83 70/2/83
f 66/99/84 65/102/84 69/5/84 1/4/84
f 64/101/85 46/106/85 68/8/85
f 71/107/86 72/108/86 74/109/86 73/110/86
f 73/110/87 74/109/87 76/111/87 75/112/87
f 75/112/88 76/111/88 78/113/88 77/114/88
f 77/114/89 78/113/89 80/115/89 79/116/89
f 79/116/90 80/115/90 82/117/90 81/118/90
f 81/118/91 82/117/91 84/119/91 83/120/91
f 78/113/92 76/111/92 89/111/92 90/113/92
f 83/120/93 84/119/93 86/121/93 85/122/93
f 85/122/94 86/121/94 72/123/94 71/124/94
f 71/125/95 73/126/95 75/127/95 77/128/95 79/129/95 81/130/95 83/131/95 85/132/95
f 94/121/93 93/119/93 101/119/93 102/121/93
f 84/119/96 82/117/96 92/117/96 93/119/96
f 80/115/97 78/113/97 90/113/97 91/115/97
f 86/121/98 84/119/98 93/119/98 94/121/98
f 76/111/99 74/109/99 88/109/99 89/111/99
f 82/117/100 80/115/100 91/115/100 92/117/100
f 72/123/101 86/121/101 94/121/101 87/123/101
f 74/109/102 72/108/102 87/108/102 88/109/102
f 99/115/89 98/113/89 106/113/89 107/115/89
f 92/117/90 91/115/90 99/115/90 100/117/90
f 90/113/88 89/111/88 97/111/88 98/113/88
f 88/109/86 87/108/86 95/108/86 96/109/86
f 87/123/94 94/121/94 102/121/94 95/123/94
f 93/119/91 92/117/91 100/117/91 101/119/91
f 91/115/89 90/113/89 98/113/89 99/115/89
f 89/111/87 88/109/87 96/109/87 97/111/87
f 104/133/103 103/134/103 110/135/103 109/136/103 108/137/103 107/138/103 106/139/103 105/140/103
f 97/111/87 96/109/87 104/109/87 105/111/87
f 102/121/93 101/119/93 109/119/93 110/121/93
f 100/117/90 99/115/90 107/115/90 108/117/90
f 98/113/88 97/111/88 105/111/88 106/113/88
f 96/109/86 95/108/86 103/108/86 104/109/86
f 95/123/94 102/121/94 110/121/94 103/123/94
f 101/119/91 100/117/91 108/117/91 109/119/91
