# Blender 4.2.0
# www.blender.org
mtllib Stick_smoothShaded.mtl
o Stick
v -0.019337 0.241158 -1.753777
v -0.001747 0.254778 -2.209137
v -0.083559 0.214557 -1.753777
v -0.054160 0.222767 -2.209137
v -0.110160 0.150335 -1.753777
v -0.075869 0.170354 -2.209137
v -0.083559 0.086114 -1.753777
v -0.054160 0.117942 -2.209137
v -0.019337 0.059513 -1.753777
v -0.001747 0.102671 -2.180736
v 0.044884 0.086114 -1.753777
v 0.050665 0.124381 -2.180736
v 0.071485 0.150335 -1.753777
v 0.072375 0.170354 -2.209137
v 0.044884 0.214557 -1.753777
v 0.050665 0.222767 -2.209137
v -0.074969 0.232269 -2.537032
v -0.101720 0.167686 -2.537032
v -0.067077 0.104103 -2.545755
v -0.002494 0.082112 -2.562224
v 0.062089 0.108863 -2.562224
v 0.088840 0.168686 -2.545755
v -0.010845 0.247695 -1.334888
v -0.058496 0.217617 -1.334371
v -0.065092 0.160148 -1.334371
v -0.068315 0.108951 -1.334888
v 0.000626 0.078874 -1.334371
v 0.058096 0.102678 -1.334371
v 0.100801 0.160291 -1.339114
v 0.076996 0.217760 -1.339114
v -0.070581 0.229420 -2.366563
v -0.095668 0.168856 -2.366563
v -0.063181 0.109230 -2.374743
v 0.057947 0.116670 -2.341924
v 0.083033 0.169794 -2.374743
v -0.002617 0.091583 -2.341924
v -0.002494 0.260020 -2.545755
v 0.062089 0.233269 -2.545755
v 0.057947 0.230357 -2.374743
v -0.002617 0.267347 -2.374743
v -0.010542 0.257411 -1.972388
v -0.068777 0.227791 -1.972388
v -0.092899 0.169556 -1.972388
v -0.068777 0.111321 -1.972388
v -0.010542 0.090636 -1.957229
v 0.047692 0.114758 -1.957229
v 0.071814 0.169556 -1.972388
v 0.047693 0.227791 -1.972388
v -0.009321 0.089734 -1.604154
v -0.072796 0.116772 -1.604408
v 0.057797 0.229469 -1.609534
v 0.081760 0.171618 -1.609534
v -0.083508 0.171548 -1.607208
v -0.067982 0.229399 -1.607208
v 0.048531 0.113696 -1.604154
v -0.014945 0.256437 -1.607462
v -0.058358 -0.025644 -1.655921
v -0.014814 -0.007608 -1.655921
v -0.011045 -0.004973 -1.535214
v -0.053176 -0.022424 -1.535214
v -0.031789 -0.071545 -1.533002
v -0.012898 -0.063720 -1.533002
v -0.011263 -0.062577 -1.480636
v -0.029541 -0.070148 -1.480636
v 0.043682 0.317705 -2.964722
v 0.047231 0.286874 -2.996920
v 0.045040 0.316717 -2.977044
v 0.046192 0.310511 -2.987489
v 0.046961 0.300032 -2.994469
v 0.016897 0.274310 -2.996920
v -0.012725 0.294555 -2.964715
v 0.006998 0.283495 -2.994468
v -0.002108 0.290568 -2.987487
v -0.009033 0.294451 -2.977039
v 0.004841 0.245586 -3.000005
v -0.035884 0.238638 -2.964746
v -0.009226 0.244563 -2.996376
v -0.021904 0.242884 -2.988400
v -0.031266 0.240803 -2.977293
v 0.020853 0.214475 -2.997758
v -0.007139 0.183153 -2.969302
v 0.011533 0.204325 -2.996710
v 0.002941 0.194809 -2.990934
v -0.003616 0.187374 -2.981310
v 0.052673 0.201516 -3.001406
v 0.048639 0.160099 -2.969289
v 0.052366 0.187553 -2.998961
v 0.051492 0.174778 -2.991999
v 0.050183 0.165138 -2.981579
v 0.081506 0.213277 -2.998100
v 0.104588 0.183273 -2.969280
v 0.091368 0.203595 -2.996920
v 0.099217 0.194493 -2.991028
v 0.103859 0.187357 -2.981323
v 0.090929 0.242661 -3.000831
v 0.122784 0.238602 -2.964718
v 0.103920 0.242755 -2.996883
v 0.114535 0.242017 -2.988634
v 0.121159 0.240558 -2.977339
v 0.077565 0.274309 -2.996920
v 0.099616 0.294536 -2.964720
v 0.086888 0.283493 -2.994469
v 0.094352 0.290562 -2.987489
v 0.098822 0.294440 -2.977043
v -0.044835 0.174754 -1.020890
v -0.041385 0.213494 -1.052759
v -0.044373 0.192710 -1.025159
v -0.043110 0.206890 -1.036824
v -0.093343 0.190928 -1.052816
v -0.072633 0.163240 -1.020890
v -0.092015 0.186111 -1.036853
v -0.084434 0.175976 -1.025167
v -0.113562 0.137944 -1.052636
v -0.084147 0.135442 -1.020890
v -0.111621 0.136693 -1.036763
v -0.100854 0.135777 -1.025143
v -0.094335 0.085635 -1.052960
v -0.072633 0.107644 -1.020890
v -0.092511 0.087613 -1.036925
v -0.084567 0.095669 -1.025186
v -0.040184 0.063056 -1.052959
v -0.044835 0.096130 -1.020890
v -0.042509 0.066827 -1.036925
v -0.044212 0.078933 -1.025186
v 0.012785 0.084996 -1.052939
v -0.017037 0.107644 -1.020890
v 0.006901 0.087293 -1.036914
v -0.004015 0.095583 -1.025184
v 0.036489 0.137923 -1.052666
v -0.005523 0.135442 -1.020890
v 0.028249 0.136683 -1.036778
v 0.012872 0.135775 -1.025147
v 0.014551 0.190883 -1.052662
v -0.017037 0.163240 -1.020890
v 0.007784 0.186088 -1.036776
v -0.003778 0.175970 -1.025146
v -0.078177 0.101443 -1.679093
v 0.076623 0.160977 -1.681656
v -0.075771 0.221978 -1.680493
v -0.014329 0.074623 -1.678966
v 0.051341 0.222013 -1.681656
v -0.096834 0.160942 -1.680493
v 0.046707 0.099905 -1.678966
v -0.017141 0.248798 -1.680620
v -0.055767 -0.024034 -1.595567
v -0.012929 -0.006290 -1.595567
v -0.030665 -0.070846 -1.506819
v -0.012081 -0.063149 -1.506819
v -0.038420 0.017867 -1.705921
v 0.015689 0.040280 -1.705921
v 0.019396 0.055662 -1.570439
v -0.030768 0.034883 -1.570439
v -0.034594 0.026375 -1.638180
v 0.017542 0.047971 -1.638180
v -0.006971 0.315816 -2.607753
v 0.055347 0.291071 -2.607832
v 0.052322 0.288507 -2.455087
v -0.006700 0.325693 -2.455164
v 0.060077 0.231855 -2.462684
v -0.098780 0.168254 -2.454225
v 0.060077 0.112655 -2.455211
v -0.002554 0.263580 -2.462684
v -0.072838 0.230885 -2.454225
v -0.065184 0.106593 -2.462684
v 0.086019 0.169224 -2.462684
v -0.002554 0.086713 -2.455211
v -0.006840 0.320614 -2.533631
v 0.053878 0.289826 -2.533634
v -0.008176 0.412132 -2.662443
v -0.008082 0.415538 -2.609826
v 0.032539 0.391487 -2.662445
v 0.031495 0.390603 -2.609775
v 0.033524 0.392322 -2.712198
v -0.008264 0.408915 -2.712146
vn -0.0168 0.9996 -0.0205
vn 0.0133 0.9995 0.0295
vn -0.7411 0.6714 0.0088
vn -0.7445 0.6672 0.0232
vn -0.9992 -0.0218 0.0324
vn -0.9997 -0.0145 0.0205
vn -0.6963 -0.7168 0.0367
vn -0.6618 -0.7494 0.0209
vn -0.1376 -0.9660 -0.2190
vn 0.0506 -0.9987 0.0013
vn 0.7487 -0.6530 -0.1139
vn 0.7004 -0.7135 0.0178
vn 0.9988 -0.0412 -0.0249
vn 0.9992 -0.0100 0.0382
vn 0.7149 0.6983 -0.0369
vn 0.7551 0.6548 0.0322
vn -0.7234 0.6905 0.0010
vn -0.9961 -0.0670 -0.0576
vn -0.6516 -0.7536 -0.0870
vn 0.0048 -0.9965 -0.0836
vn 0.6869 -0.7266 -0.0142
vn 0.9980 -0.0275 0.0577
vn -0.0605 0.9954 0.0748
vn -0.7907 0.6122 0.0098
vn -0.9976 0.0556 -0.0424
vn -0.7994 -0.5968 -0.0692
vn 0.0163 -0.9988 -0.0463
vn 0.6577 -0.7533 0.0093
vn 0.9949 -0.0774 0.0654
vn 0.7029 0.7050 0.0946
vn -0.7444 0.6652 0.0579
vn -0.9963 -0.0426 0.0749
vn -0.6439 -0.7628 0.0592
vn 0.6996 -0.7125 0.0546
vn 0.9988 -0.0127 0.0463
vn 0.0383 -0.9976 0.0572
vn -0.7630 0.6247 -0.1661
vn 0.9339 0.3563 -0.0296
vn 0.8036 0.5780 0.1419
vn -0.0850 0.9737 0.2113
vn -0.0005 0.9998 0.0195
vn -0.7280 0.6850 -0.0265
vn -0.9972 0.0107 -0.0743
vn -0.6828 -0.7239 -0.0988
vn 0.0339 -0.9945 -0.0996
vn 0.7042 -0.7080 -0.0543
vn 1.0000 -0.0028 0.0020
vn 0.7291 0.6838 0.0290
vn -0.6900 -0.5600 0.4587
vn -0.7965 -0.5939 0.1134
vn 0.6821 0.7278 -0.0715
vn 0.9972 -0.0452 -0.0588
vn -0.9941 0.0562 0.0930
vn -0.7726 0.6339 0.0349
vn 0.8108 -0.5769 0.0989
vn -0.0634 0.9975 -0.0304
vn -0.6920 -0.5477 -0.4704
vn 0.6296 -0.7132 -0.3082
vn 0.6149 0.4045 0.6770
vn -0.8681 0.2331 0.4382
vn -0.3270 -0.9375 -0.1187
vn 0.7813 -0.6062 -0.1488
vn 0.5746 -0.1362 0.8070
vn -0.3605 -0.4932 0.7917
vn 0.0053 0.9996 0.0270
vn -0.0013 0.1274 -0.9919
vn 0.0081 0.9574 -0.2887
vn 0.0123 0.7493 -0.6621
vn 0.0073 0.4177 -0.9086
vn -0.0861 0.1178 -0.9893
vn -0.6958 0.7112 -0.0999
vn -0.2805 0.3142 -0.9070
vn -0.4885 0.5224 -0.6989
vn -0.6404 0.6658 -0.3828
vn -0.1119 0.0297 -0.9933
vn -0.9688 -0.0242 -0.2468
vn -0.3773 0.0238 -0.9258
vn -0.6576 0.0136 -0.7533
vn -0.8711 -0.0037 -0.4910
vn -0.0847 -0.0480 -0.9952
vn -0.6475 -0.6932 -0.3164
vn -0.2575 -0.2336 -0.9376
vn -0.4367 -0.4344 -0.7878
vn -0.5793 -0.6025 -0.5491
vn -0.0012 -0.0492 -0.9988
vn 0.0077 -0.9601 -0.2796
vn 0.0059 -0.3122 -0.9500
vn 0.0108 -0.6156 -0.7880
vn 0.0116 -0.8498 -0.5270
vn 0.0947 -0.0518 -0.9942
vn 0.7190 -0.6765 -0.1591
vn 0.3098 -0.2282 -0.9230
vn 0.5290 -0.4237 -0.7353
vn 0.6816 -0.5881 -0.4354
vn 0.1164 0.0378 -0.9925
vn 0.9995 0.0279 -0.0138
vn 0.4251 0.0544 -0.9035
vn 0.7483 0.0658 -0.6601
vn 0.9498 0.0581 -0.3073
vn 0.0864 0.1244 -0.9885
vn 0.7062 0.7057 0.0560
vn 0.3090 0.3320 -0.8912
vn 0.5400 0.5508 -0.6364
vn 0.6807 0.6851 -0.2594
vn -0.0019 0.1451 0.9894
vn -0.0459 0.9702 0.2381
vn -0.0124 0.4890 0.8722
vn -0.0202 0.8251 0.5646
vn -0.7556 0.6469 0.1028
vn -0.1080 0.1042 0.9887
vn -0.6406 0.5979 0.4818
vn -0.3848 0.3567 0.8513
vn -0.9996 0.0275 0.0059
vn -0.1541 -0.0011 0.9880
vn -0.9099 -0.0032 0.4149
vn -0.5524 -0.0064 0.8335
vn -0.7545 -0.6562 0.0057
vn -0.1096 -0.1090 0.9880
vn -0.6539 -0.6347 0.4117
vn -0.3956 -0.3875 0.8327
vn -0.0059 -0.9966 0.0827
vn -0.0021 -0.1520 0.9884
vn -0.0154 -0.8861 0.4633
vn -0.0141 -0.5335 0.8457
vn 0.6584 -0.7248 0.2030
vn 0.1020 -0.1058 0.9891
vn 0.5750 -0.6115 0.5435
vn 0.3408 -0.3653 0.8663
vn 0.9462 -0.0509 0.3195
vn 0.1419 -0.0016 0.9899
vn 0.7911 -0.0184 0.6114
vn 0.4680 -0.0101 0.8836
vn 0.6559 0.6811 0.3255
vn 0.0992 0.1010 0.9899
vn 0.5490 0.5665 0.6146
vn 0.3244 0.3354 0.8845
vn -0.7249 -0.6564 0.2089
vn 0.9982 -0.0335 -0.0498
vn -0.7410 0.6713 0.0170
vn -0.9202 -0.3641 0.1436
vn 0.6935 0.7087 -0.1298
vn -0.9900 0.0215 0.1391
vn 0.8915 -0.4514 0.0387
vn -0.0306 0.9946 -0.0991
vn -0.9994 -0.0021 0.0354
vn 0.9649 -0.2624 -0.0116
vn -0.3745 -0.9263 0.0408
vn 0.8221 -0.5692 -0.0132
vn -0.6681 -0.4202 -0.6141
vn 0.6596 -0.6971 -0.2810
vn 0.6252 0.1128 0.7723
vn -0.6840 0.5616 0.4656
vn -0.9203 0.3913 0.0042
vn 0.8800 -0.4741 0.0275
vn -0.8004 -0.4573 -0.3875
vn 0.6629 -0.4773 -0.5769
vn 0.8160 0.5039 0.2833
vn -0.5280 0.7044 0.4745
vn 0.9652 0.2603 0.0268
vn -0.9978 -0.0551 0.0358
vn 0.6948 -0.7182 0.0389
vn -0.8610 0.5085 -0.0015
vn -0.7233 0.6904 0.0127
vn -0.6359 -0.7707 0.0392
vn 0.9993 -0.0167 0.0335
vn 0.0406 -0.9983 0.0417
vn -0.9991 -0.0411 0.0034
vn 0.9823 0.1855 0.0237
vn -0.5270 0.8498 -0.0142
vn -0.4585 0.8652 0.2029
vn 0.7855 0.6189 0.0033
vn 0.7542 0.6363 0.1625
vn 0.5743 0.0978 -0.8128
vn -0.4123 0.4351 -0.8005
vt 1.000000 0.750000
vt 1.000000 1.000000
vt 0.875000 1.000000
vt 0.875000 0.750000
vt 0.750000 1.000000
vt 0.750000 0.750000
vt 0.625000 1.000000
vt 0.625000 0.750000
vt 0.500000 1.000000
vt 0.500000 0.750000
vt 0.375000 1.000000
vt 0.375000 0.750000
vt 0.250000 1.000000
vt 0.250000 0.750000
vt 0.125000 1.000000
vt 0.125000 0.750000
vt 0.000000 1.000000
vt 0.000000 0.750000
vt 0.625000 0.500000
vt 0.500000 0.500000
vt 0.625000 0.500000
vt 0.750000 1.000000
vt 0.250000 0.500000
vt 0.125000 0.500000
vt 0.125000 0.500000
vt 0.875000 0.500000
vt 0.750000 0.500000
vt 0.875000 0.500000
vt 0.375000 0.500000
vt 0.375000 0.500000
vt 0.000000 0.500000
vt 1.000000 0.500000
vt 1.000000 0.500000
vt 0.345522 0.343017
vt 0.252031 0.381616
vt 0.159285 0.343015
vt 0.120815 0.245286
vt 0.155392 0.155060
vt 0.245818 0.118496
vt 0.341586 0.158776
vt 0.384719 0.254378
vt 0.750000 1.000000
vt 0.750000 0.500000
vt 0.750000 0.377174
vt 0.839926 0.339926
vt 0.877174 0.250000
vt 0.839926 0.160074
vt 0.750000 0.122826
vt 0.660074 0.160074
vt 0.622826 0.250000
vt 0.660074 0.339926
vt 0.500000 1.000000
vt 0.375000 1.000000
vt 0.008100 1.000000
vt 0.116905 1.000000
vt 0.117083 1.000000
vt 0.117272 1.000000
vt 0.007923 1.000000
vt 0.007734 1.000000
vt 0.375000 0.500000
vt 0.750000 0.500000
vt 0.875000 0.500000
vt 0.125000 0.500000
vt 0.402927 0.500000
vt 0.403145 0.500000
vt 0.402927 0.500000
vt 0.486445 0.500000
vt 0.388551 0.500000
vt 0.402708 0.500000
vt 0.472284 0.500000
vt 0.388657 0.500000
vt 0.388764 0.500000
vt 0.486232 0.500000
vt 0.471847 0.500000
vt 0.486339 0.500000
vt 0.472065 0.500000
vt 0.472065 0.500000
vt 0.998065 1.000000
vt 0.877275 1.000000
vt 0.988696 1.000000
vt 0.879510 1.000000
vt 0.413582 0.422242
vt 0.265346 0.483643
vt 0.251985 0.422323
vt 0.374858 0.371538
vt 0.872801 1.000000
vt 0.752188 1.000000
vt 0.862992 1.000000
vt 0.755111 1.000000
vt 0.487126 0.256939
vt 0.426459 0.403402
vt 0.426620 0.251693
vt 0.747665 1.000000
vt 0.626766 1.000000
vt 0.740945 1.000000
vt 0.631549 1.000000
vt 0.423388 0.089186
vt 0.484908 0.237706
vt 0.372232 0.127619
vt 0.623123 1.000000
vt 0.502146 1.000000
vt 0.618840 1.000000
vt 0.509099 1.000000
vt 0.262353 0.015117
vt 0.411342 0.076830
vt 0.248669 0.075783
vt 0.498012 1.000000
vt 0.377410 1.000000
vt 0.495463 1.000000
vt 0.387568 1.000000
vt 0.097357 0.073227
vt 0.243841 0.012551
vt 0.127089 0.125355
vt 0.372800 1.000000
vt 0.252311 1.000000
vt 0.367963 1.000000
vt 0.259747 1.000000
vt 0.015481 0.236767
vt 0.076337 0.089848
vt 0.079599 0.246065
vt 0.248114 1.000000
vt 0.127049 1.000000
vt 0.245099 1.000000
vt 0.135246 1.000000
vt 0.074533 0.405796
vt 0.012756 0.256653
vt 0.129614 0.371530
vt 0.122906 1.000000
vt 0.002156 1.000000
vt 0.116213 1.000000
vt 0.007291 1.000000
vt 0.240102 0.485900
vt 0.092224 0.424647
vt 0.884229 0.500000
vt 0.750000 0.490000
vt 0.907175 0.424896
vt 0.878103 0.381127
vt 0.748505 0.435261
vt 0.758781 0.500000
vt 0.919706 0.419706
vt 0.985062 0.261922
vt 0.931220 0.251084
vt 0.630387 0.500000
vt 0.746307 0.500000
vt 0.987923 0.244987
vt 0.922735 0.087608
vt 0.878533 0.121334
vt 0.619171 0.500000
vt 0.911792 0.077016
vt 0.750000 0.010000
vt 0.747984 0.067194
vt 0.490575 0.500000
vt 0.737204 0.015300
vt 0.580294 0.080294
vt 0.617948 0.121057
vt 0.366842 0.500000
vt 0.575707 0.091370
vt 0.510000 0.250000
vt 0.563321 0.251075
vt 0.128822 0.500000
vt 0.246545 0.500000
vt 0.511943 0.254690
vt 0.578145 0.414516
vt 0.617182 0.381108
vt 0.005817 0.500000
vt 0.580294 0.419706
vt 0.742102 0.486729
s 1
f 41/1/41 2/2/2 4/3/4 42/4/42
f 42/4/42 4/3/4 6/5/6 43/6/43
f 43/6/43 6/5/6 8/7/8 44/8/44
f 44/8/44 8/7/8 10/9/10 45/10/45
f 45/10/45 10/9/10 12/11/12 46/12/46
f 46/12/46 12/11/12 14/13/14 47/14/47
f 47/14/47 14/13/14 16/15/16 48/16/48
f 48/16/48 16/15/16 2/17/2 41/18/41
f 50/19/50 49/20/49 27/20/27 26/21/26
f 163/3/163 162/2/162 37/2/37 17/3/17
f 164/7/164 160/22/160 18/5/18 19/7/19
f 165/13/165 161/11/161 21/11/21 22/13/22
f 166/9/166 164/7/164 19/7/19 20/9/20
f 159/15/159 165/13/165 22/13/22 38/15/38
f 160/22/160 163/3/163 17/3/17 18/5/18
f 161/11/161 166/9/166 20/9/20 21/11/21
f 29/23/29 30/24/30 133/24/133 129/23/129
f 52/23/52 51/25/51 30/24/30 29/23/29
f 54/26/54 53/27/53 25/27/25 24/28/24
f 49/20/49 55/29/55 28/30/28 27/20/27
f 51/25/51 56/31/56 23/31/23 30/24/30
f 56/32/56 54/26/54 24/28/24 23/33/23
f 53/27/53 50/19/50 26/21/26 25/27/25
f 55/29/55 52/23/52 29/23/29 28/30/28
f 37/17/37 38/15/38 101/15/101 65/17/65
f 22/13/22 21/11/21 91/11/91 96/13/96
f 20/9/20 19/7/19 81/7/81 86/9/86
f 70/34/70 66/35/66 100/36/100 95/37/95 90/38/90 85/39/85 80/40/80 75/41/75
f 18/5/18 17/3/17 71/3/71 76/42/76
f 38/15/38 22/13/22 96/13/96 101/15/101
f 21/11/21 20/9/20 86/9/86 91/11/91
f 19/7/19 18/5/18 76/5/76 81/7/81
f 30/24/30 23/31/23 106/31/106 133/24/133
f 27/20/27 28/30/28 125/30/125 121/20/121
f 25/27/25 26/21/26 117/21/117 113/43/113
f 28/30/28 29/23/29 129/23/129 125/30/125
f 26/21/26 27/20/27 121/20/121 117/21/117
f 105/44/105 110/45/110 114/46/114 118/47/118 122/48/122 126/49/126 130/50/130 134/51/134
f 24/28/24 25/27/25 113/27/113 109/28/109
f 12/11/12 10/9/10 36/52/36 34/53/34
f 6/5/6 4/3/4 31/3/31 32/42/32
f 16/15/16 14/13/14 35/13/35 39/15/39
f 10/9/10 8/7/8 33/7/33 36/52/36
f 14/13/14 12/11/12 34/53/34 35/13/35
f 8/7/8 6/5/6 32/42/32 33/7/33
f 4/3/4 2/2/2 40/2/40 31/3/31
f 2/17/2 16/15/16 39/15/39 40/17/40
f 155/54/155 156/55/156 38/15/38 37/17/37
f 168/56/168 157/57/157 39/15/39 159/15/159
f 167/58/167 155/54/155 37/17/37 162/17/162
f 157/57/157 158/59/158 40/17/40 39/15/39
f 15/24/15 48/16/48 41/18/41 1/31/1
f 13/23/13 47/14/47 48/16/48 15/24/15
f 11/30/11 46/12/46 47/14/47 13/23/13
f 9/20/9 45/10/45 46/12/46 11/30/11
f 7/21/7 44/8/44 45/10/45 9/20/9
f 5/27/5 43/6/43 44/8/44 7/21/7
f 3/28/3 42/4/42 43/6/43 5/27/5
f 1/33/1 41/1/41 42/4/42 3/28/3
f 143/60/143 138/23/138 52/23/52 55/29/55
f 142/61/142 137/21/137 50/19/50 53/27/53
f 144/32/144 139/62/139 54/26/54 56/32/56
f 141/63/141 144/31/144 56/31/56 51/25/51
f 146/64/146 59/65/59 63/65/63 148/66/148
f 139/62/139 142/61/142 53/27/53 54/26/54
f 138/23/138 141/63/141 51/25/51 52/23/52
f 137/21/137 140/20/140 49/20/49 50/19/50
f 149/67/149 150/68/150 58/69/58 57/70/57
f 154/71/154 151/72/151 59/65/59 146/64/146
f 151/72/151 152/73/152 60/74/60 59/65/59
f 153/75/153 149/67/149 57/70/57 145/76/145
f 147/77/147 148/66/148 63/65/63 64/74/64
f 57/70/57 58/69/58 62/69/62 61/70/61
f 59/65/59 60/74/60 64/74/64 63/65/63
f 145/76/145 57/70/57 61/70/61 147/77/147
f 71/3/71 65/2/65 67/78/67 74/79/74
f 74/79/74 67/78/67 68/80/68 73/81/73
f 73/82/73 68/83/68 69/84/69 72/85/72
f 72/85/72 69/84/69 66/35/66 70/34/70
f 76/42/76 71/3/71 74/86/74 79/87/79
f 79/87/79 74/86/74 73/88/73 78/89/78
f 78/90/78 73/91/73 72/85/72 77/92/77
f 77/92/77 72/85/72 70/34/70 75/41/75
f 81/7/81 76/5/76 79/93/79 84/94/84
f 84/94/84 79/93/79 78/95/78 83/96/83
f 83/97/83 78/98/78 77/92/77 82/99/82
f 82/99/82 77/92/77 75/41/75 80/40/80
f 86/9/86 81/7/81 84/100/84 89/101/89
f 89/101/89 84/100/84 83/102/83 88/103/88
f 88/104/88 83/105/83 82/99/82 87/106/87
f 87/106/87 82/99/82 80/40/80 85/39/85
f 91/11/91 86/9/86 89/107/89 94/108/94
f 94/108/94 89/107/89 88/109/88 93/110/93
f 93/111/93 88/112/88 87/106/87 92/113/92
f 92/113/92 87/106/87 85/39/85 90/38/90
f 96/13/96 91/11/91 94/114/94 99/115/99
f 99/115/99 94/114/94 93/116/93 98/117/98
f 98/118/98 93/119/93 92/113/92 97/120/97
f 97/120/97 92/113/92 90/38/90 95/37/95
f 101/15/101 96/13/96 99/121/99 104/122/104
f 104/122/104 99/121/99 98/123/98 103/124/103
f 103/125/103 98/126/98 97/120/97 102/127/102
f 102/127/102 97/120/97 95/37/95 100/36/100
f 65/17/65 101/15/101 104/128/104 67/129/67
f 67/129/67 104/128/104 103/130/103 68/131/68
f 68/132/68 103/133/103 102/127/102 69/84/69
f 69/84/69 102/127/102 100/36/100 66/35/66
f 17/3/17 37/2/37 65/2/65 71/3/71
f 106/33/106 109/28/109 111/134/111 108/33/108
f 108/135/108 111/136/111 112/137/112 107/138/107
f 107/138/107 112/137/112 110/45/110 105/44/105
f 109/28/109 113/27/113 115/139/115 111/28/111
f 111/140/111 115/141/115 116/142/116 112/137/112
f 112/137/112 116/142/116 114/46/114 110/45/110
f 113/43/113 117/21/117 119/143/119 115/144/115
f 115/145/115 119/146/119 120/147/120 116/142/116
f 116/142/116 120/147/120 118/47/118 114/46/114
f 117/21/117 121/20/121 123/20/123 119/148/119
f 119/149/119 123/150/123 124/151/124 120/147/120
f 120/147/120 124/151/124 122/48/122 118/47/118
f 121/20/121 125/30/125 127/30/127 123/152/123
f 123/153/123 127/154/127 128/155/128 124/151/124
f 124/151/124 128/155/128 126/49/126 122/48/122
f 125/30/125 129/23/129 131/23/131 127/156/127
f 127/157/127 131/158/131 132/159/132 128/155/128
f 128/155/128 132/159/132 130/50/130 126/49/126
f 129/23/129 133/24/133 135/160/135 131/161/131
f 131/162/131 135/163/135 136/164/136 132/159/132
f 132/159/132 136/164/136 134/51/134 130/50/130
f 133/24/133 106/31/106 108/165/108 135/24/135
f 135/166/135 108/167/108 107/138/107 136/164/136
f 136/164/136 107/138/107 105/44/105 134/51/134
f 23/33/23 24/28/24 109/28/109 106/33/106
f 60/74/60 145/76/145 147/77/147 64/74/64
f 61/70/61 62/69/62 148/66/148 147/77/147
f 152/73/152 153/75/153 145/76/145 60/74/60
f 150/68/150 154/71/154 146/64/146 58/69/58
f 7/21/7 9/20/9 140/20/140 137/21/137
f 13/23/13 15/24/15 141/63/141 138/23/138
f 3/28/3 5/27/5 142/61/142 139/62/139
f 58/69/58 146/64/146 148/66/148 62/69/62
f 15/24/15 1/31/1 144/31/144 141/63/141
f 1/33/1 3/28/3 139/62/139 144/32/144
f 5/27/5 7/21/7 137/21/137 142/61/142
f 11/30/11 13/23/13 138/23/138 143/60/143
f 11/30/11 143/60/143 154/71/154 150/68/150
f 49/20/49 140/20/140 153/75/153 152/73/152
f 140/20/140 9/20/9 149/67/149 153/75/153
f 55/29/55 49/20/49 152/73/152 151/72/151
f 143/60/143 55/29/55 151/72/151 154/71/154
f 9/20/9 11/30/11 150/68/150 149/67/149
f 158/59/158 167/58/167 162/17/162 40/17/40
f 156/55/156 168/56/168 159/15/159 38/15/38
f 34/53/34 36/52/36 166/9/166 161/11/161
f 32/42/32 31/3/31 163/3/163 160/22/160
f 39/15/39 35/13/35 165/13/165 159/15/159
f 36/52/36 33/7/33 164/7/164 166/9/166
f 35/13/35 34/53/34 161/11/161 165/13/165
f 33/7/33 32/42/32 160/22/160 164/7/164
f 31/3/31 40/2/40 162/2/162 163/3/163
f 170/59/170 172/57/172 171/56/171 173/55/173 174/54/174 169/58/169
f 155/54/155 167/58/167 169/58/169 174/54/174
f 167/58/167 158/59/158 170/59/170 169/58/169
f 158/59/158 157/57/157 172/57/172 170/59/170
f 157/57/157 168/56/168 171/56/171 172/57/172
f 156/55/156 155/54/155 174/54/174 173/55/173
f 168/56/168 156/55/156 173/55/173 171/56/171
