# Blender 4.2.0
# www.blender.org
mtllib tree_stump_lowpoly.mtl
o Baumstumpf
v -0.000000 0.007906 -2.648152
v -0.000000 0.441019 -2.615962
v 0.364685 0.007906 -2.497095
v 0.309581 0.441019 -2.487729
v 0.515743 0.007906 -2.132410
v 0.437813 0.441019 -2.178149
v 0.364685 0.007906 -1.767724
v 0.309581 0.424526 -1.868568
v -0.000000 0.007906 -1.616667
v -0.000000 0.522918 -1.740335
v -0.364685 0.007906 -1.767724
v -0.309581 0.572398 -1.868568
v -0.460061 0.139179 -2.203652
v -0.410516 0.414536 -2.232732
v -0.364024 0.139179 -2.435506
v -0.328990 0.414536 -2.429552
v -0.000000 0.987472 -2.605809
v 0.273421 0.959983 -2.492554
v 0.386676 0.883015 -2.219133
v 0.273421 0.883015 -1.945712
v -0.000000 0.844530 -1.832457
v -0.273421 0.883015 -1.945712
v -0.386676 0.883015 -2.219133
v -0.273421 0.959983 -2.492554
v 0.104702 -0.225230 -2.915859
v 0.375973 -0.225230 -2.803494
v 0.558155 -0.226256 -2.136186
v 0.394675 -0.226256 -1.741511
v -0.000000 -0.101916 -1.578032
v -0.394675 -0.106394 -1.741511
v -0.487024 -0.009693 -2.206053
v -0.383090 -0.009693 -2.456974
v 0.104635 0.093070 -2.871729
v 0.335222 0.093070 -2.776217
v 0.476778 0.224463 -2.155279
v 0.337133 0.207969 -1.818146
v -0.000000 0.158490 -1.678501
v -0.337133 0.207969 -1.818146
v -0.435288 0.276858 -2.218192
v -0.346507 0.276858 -2.432529
v 0.337133 0.299920 -2.559927
v 0.354873 -0.061058 -2.779647
v -0.000000 -0.147716 -2.694341
v 0.394675 -0.147716 -2.530861
v 0.104683 -0.060016 -2.883224
v -0.000000 0.299920 -2.699572
v 0.273738 -0.230761 -3.108911
v 0.392621 -0.231256 -3.059694
v 0.383283 -0.158019 -3.058064
v 0.273747 -0.290218 -3.124418
v 0.402647 -0.290218 -3.071026
v 0.273715 -0.158019 -3.103448
v 0.682365 -0.039665 -1.984643
v 0.696487 -0.118152 -1.976355
v 0.641739 -0.118152 -1.844181
v 0.631753 -0.039665 -1.862455
v 0.711858 -0.203021 -1.977724
v 0.652608 -0.203021 -1.834680
v 0.852585 -0.087786 -1.887166
v 0.862702 -0.144012 -1.881228
v 0.823482 -0.144012 -1.786543
v 0.816329 -0.087786 -1.799634
v 0.873714 -0.204809 -1.882209
v 0.831269 -0.204809 -1.779737
v 0.000000 0.975675 -2.546545
v 0.231515 0.952400 -2.450648
v 0.327411 0.887228 -2.219133
v 0.231515 0.887228 -1.987618
v 0.000000 0.854642 -1.891722
v -0.231515 0.887228 -1.987618
v -0.327411 0.887228 -2.219133
v -0.231515 0.952400 -2.450648
v 0.000000 0.928330 -2.546545
v 0.231515 0.905055 -2.450648
v 0.327411 0.839883 -2.219133
v 0.231515 0.839883 -1.987618
v 0.000000 0.807297 -1.891722
v -0.231515 0.839883 -1.987618
v -0.327411 0.839883 -2.219133
v -0.231515 0.905055 -2.450648
v -0.259609 0.100412 -1.320426
v -0.259609 0.033583 -1.293789
v -0.404838 0.100412 -1.380582
v -0.416707 0.033583 -1.358861
v -0.259609 -0.067289 -1.277146
v -0.429626 -0.067289 -1.347569
v -0.137254 0.289652 -1.532302
v -0.270614 0.289652 -1.587542
v -0.427061 -0.080954 -1.065439
v -0.427061 -0.141066 -1.048275
v -0.520642 -0.080954 -1.104201
v -0.528290 -0.141066 -1.090205
v -0.427061 -0.206064 -1.037550
v -0.536615 -0.206064 -1.082929
v -0.427061 -0.020843 -1.082603
v -0.512994 -0.020843 -1.118197
v -0.535381 -0.140683 -0.792951
v -0.535381 -0.170519 -0.784432
v -0.581830 -0.140683 -0.812190
v -0.585626 -0.170519 -0.805244
v -0.535381 -0.202781 -0.779109
v -0.589757 -0.202781 -0.801632
v -0.535381 -0.110847 -0.801470
v -0.578034 -0.110847 -0.819137
v -0.748050 0.040519 -2.405784
v -0.759085 -0.020808 -2.399307
v -0.716307 -0.020808 -2.502582
v -0.700702 0.101845 -2.499930
v -0.737016 0.101845 -2.412260
v -0.708504 0.040519 -2.501256
v -0.771095 -0.087120 -2.400377
v -0.724800 -0.087120 -2.512144
v -0.943703 -0.089051 -2.503752
v -0.951315 -0.131357 -2.499284
v -0.921805 -0.131357 -2.570529
v -0.911040 -0.046745 -2.568699
v -0.936091 -0.046745 -2.508220
v -0.916422 -0.089051 -2.569614
v -0.959601 -0.177103 -2.500022
v -0.927664 -0.177103 -2.577125
v -1.132555 -0.124213 -2.591003
v -1.138342 -0.156376 -2.587607
v -1.115907 -0.156376 -2.641770
v -1.107722 -0.092050 -2.640379
v -1.126768 -0.092050 -2.594400
v -1.111814 -0.124213 -2.641074
v -1.144641 -0.191154 -2.588168
v -1.120361 -0.191154 -2.646785
v 0.999728 -0.203755 -1.902562
v 1.005365 -0.235080 -1.899254
v 0.983514 -0.235080 -1.846502
v 0.979528 -0.203755 -1.853795
v 1.011500 -0.268952 -1.899800
v 0.987852 -0.268952 -1.842710
vn 0.3357 0.4802 -0.8104
vn 0.9215 0.2159 -0.3228
vn 0.9009 0.2033 0.3835
vn 0.3879 0.1926 0.9014
vn -0.9630 0.1308 0.2356
vn 0.3925 0.2124 0.8949
vn -0.5960 0.7641 -0.2469
vn -0.5492 0.2792 -0.7877
vn -0.9405 0.2265 0.2534
vn -0.1761 -0.9838 -0.0333
vn -0.9256 0.0542 -0.3745
vn 0.9249 0.0662 -0.3744
vn -0.4438 -0.0208 -0.8959
vn 0.3833 0.0176 -0.9234
vn 0.9136 0.1387 0.3823
vn -0.9505 0.0973 0.2952
vn 0.4029 0.2034 0.8924
vn 0.2070 -0.9746 0.0857
vn 0.9118 0.2037 -0.3566
vn -0.4436 0.2208 -0.8686
vn -0.7429 0.1402 -0.6545
vn 0.3642 0.2690 0.8916
vn -0.5654 -0.0696 -0.8218
vn -0.5791 0.0918 0.8100
vn -0.9437 0.1973 0.2657
vn 0.3450 0.3107 0.8857
vn 0.7007 0.1382 -0.6999
vn 0.9356 0.0638 -0.3473
vn 0.2561 0.7431 -0.6183
vn 0.9926 0.0949 -0.0758
vn -0.1156 -0.9533 0.2790
vn 0.9801 0.1739 -0.0962
vn -0.8900 0.1087 -0.4428
vn -0.8992 -0.0392 -0.4358
vn 0.2757 0.6935 -0.6656
vn 0.3723 0.2350 -0.8979
vn 0.3818 0.0693 -0.9216
vn -0.0937 -0.9696 0.2262
vn -0.7823 0.0464 -0.6211
vn 0.9898 0.1284 0.0613
vn 0.9905 0.1250 0.0575
vn -0.0089 -1.0000 -0.0037
vn 0.5063 0.1055 -0.8559
vn 0.1052 -0.9935 0.0436
vn 0.3244 0.1462 0.9346
vn 0.6466 0.7043 0.2931
vn 0.6696 0.0422 -0.7415
vn 0.4637 0.2565 0.8481
vn 0.4223 0.1541 0.8932
vn 0.2218 0.9708 0.0919
vn -0.2926 0.0693 0.9537
vn -0.2731 0.1851 0.9440
vn 0.4964 -0.0023 -0.8681
vn -0.3354 0.2615 0.9050
vn -0.9855 0.1108 -0.1287
vn 0.7660 0.1631 0.6218
vn -0.9288 0.3400 0.1475
vn -0.0688 0.9674 0.2438
vn 0.0689 0.9834 0.1678
vn 0.0709 0.9971 0.0294
vn 0.0177 0.9806 0.1952
vn -0.0177 0.9806 0.1952
vn -0.0709 0.9971 0.0294
vn -0.0689 0.9834 0.1678
vn 0.0688 0.9674 0.2438
vn -0.3827 -0.0000 0.9239
vn 0.3827 -0.0000 0.9239
vn 0.9239 -0.0000 -0.3827
vn -0.3827 -0.0000 -0.9239
vn -0.9239 -0.0000 0.3827
vn 0.9239 -0.0000 0.3827
vn 0.3827 -0.0000 -0.9239
vn -0.9239 -0.0000 -0.3827
vn -0.0000 0.9870 0.1607
vn 0.7873 0.1004 0.6084
vn -0.9194 0.3172 -0.2324
vn -0.9315 0.0415 -0.3615
vn -0.0305 -0.9952 0.0927
vn -0.2083 0.6934 0.6898
vn 0.7788 0.1312 0.6134
vn -0.9774 0.1740 -0.1199
vn 0.7659 0.2423 0.5955
vn -0.9770 0.1043 -0.1858
vn 0.9150 0.1108 0.3880
vn -0.1096 0.9581 0.2645
vn 0.1673 -0.8993 -0.4040
vn 0.7293 0.2232 0.6468
vn -0.1944 0.8613 0.4694
vn 0.7423 0.2179 0.6337
vn -0.9382 0.0825 -0.3360
vn -0.3700 0.2551 0.8933
vn -0.3783 0.1507 0.9133
vn -0.9787 0.0806 -0.1886
vn 0.9207 0.0635 0.3851
vn -0.0045 -0.9999 0.0108
vn -0.4939 0.0755 0.8662
vn -0.5345 0.1833 0.8250
vn -0.6069 0.1907 0.7716
vn 0.1882 -0.0027 -0.9821
vn 0.1304 0.1251 -0.9835
vn -0.1956 0.9773 -0.0810
vn 0.0633 -0.9977 0.0262
vn 0.3325 0.0928 -0.9385
vn 0.3239 -0.0208 -0.9459
vn 0.2608 0.1050 -0.9597
vn 0.3606 -0.9207 0.1493
vn -0.5161 0.8294 -0.2138
vn -0.9167 0.1248 -0.3797
vn -0.9103 0.1710 -0.3770
vn -0.4394 0.1722 0.8816
vn -0.4331 0.0639 0.8991
vn 0.3472 -0.0239 -0.9375
vn 0.9121 0.1591 0.3778
vn 0.9048 0.2024 0.3748
vn -0.2117 -0.1402 -0.9672
vn -0.1301 -0.0076 -0.9915
vn -0.4339 -0.8828 -0.1797
vn 0.6149 0.7464 0.2547
vt 1.000000 0.664513
vt 1.000000 0.829025
vt 0.875000 0.829025
vt 0.875000 0.664513
vt 0.750000 0.829025
vt 0.750000 0.664513
vt 0.625000 0.829025
vt 0.625000 0.664513
vt 0.500000 0.829025
vt 0.500000 0.664513
vt 0.375000 0.664513
vt 0.375000 0.829025
vt 0.250000 0.829025
vt 0.250000 0.664513
vt 0.625000 1.000000
vt 0.500000 1.000000
vt 0.125000 0.829025
vt 0.125000 0.664513
vt 0.000000 0.829025
vt 0.000000 0.664513
vt 0.375000 0.500000
vt 0.250000 0.500000
vt 0.750000 0.490000
vt 0.919706 0.419706
vt 0.990000 0.250000
vt 0.919706 0.080294
vt 0.750000 0.010000
vt 0.580294 0.080294
vt 0.510000 0.250000
vt 0.580294 0.419706
vt 0.250000 1.000000
vt 0.125000 1.000000
vt 0.875000 1.000000
vt 0.750000 1.000000
vt 0.000000 1.000000
vt 1.000000 1.000000
vt 0.375000 1.000000
vt 0.625000 0.500000
vt 0.500000 0.500000
vt 0.875000 0.500000
vt 0.750000 0.500000
vt 0.125000 0.500000
vt 0.000000 0.500000
vt 0.989087 0.500000
vt 0.988472 0.498591
vt 0.987785 0.636884
vt 0.887256 0.636884
vt 0.886532 0.500000
vt 0.885907 0.500000
vt 1.000000 0.500000
s 0
f 46/1/1 2/2/1 4/3/1 41/4/1
f 41/4/2 4/3/2 6/5/2 35/6/2
f 35/6/3 6/5/3 8/7/3 36/8/3
f 36/8/4 8/7/4 10/9/4 37/10/4
f 38/11/5 12/12/5 14/13/5 39/14/5
f 10/9/6 8/7/6 20/15/6 21/16/6
f 14/13/7 16/17/7 108/17/7 109/13/7
f 40/18/8 16/17/8 2/19/8 46/20/8
f 11/21/9 13/22/9 31/22/9 30/21/9
f 43/23/10 44/24/10 27/25/10 28/26/10 29/27/10 30/28/10 31/29/10 32/30/10
f 16/17/11 14/13/11 23/31/11 24/32/11
f 6/5/12 4/3/12 18/33/12 19/34/12
f 2/19/13 16/17/13 24/32/13 17/35/13
f 4/3/14 2/2/14 17/36/14 18/33/14
f 8/7/15 6/5/15 19/34/15 20/15/15
f 14/13/16 12/12/16 22/37/16 23/31/16
f 7/38/17 9/39/17 29/39/17 28/38/17
f 32/30/18 31/29/18 111/29/18 112/30/18
f 3/40/19 5/41/19 27/41/19 44/40/19
f 15/42/20 1/43/20 43/43/20 32/42/20
f 25/44/21 45/45/21 47/45/21 50/44/21
f 36/8/22 7/38/22 55/38/22 56/8/22
f 15/42/23 40/18/23 46/20/23 1/43/23
f 31/22/24 13/22/24 106/22/24 111/22/24
f 11/21/25 38/11/25 39/14/25 13/22/25
f 7/38/26 36/8/26 37/10/26 9/39/26
f 27/41/27 5/41/27 54/41/27 57/41/27
f 3/40/28 41/4/28 35/6/28 5/41/28
f 33/46/29 34/47/29 49/47/29 52/46/29
f 42/48/30 34/47/30 41/4/30 3/40/30
f 25/44/31 26/49/31 44/40/31 43/50/31
f 26/49/32 42/48/32 3/40/32 44/40/32
f 45/45/33 25/44/33 43/50/33 1/50/33
f 33/46/34 45/45/34 1/50/34 46/1/34
f 34/47/35 33/46/35 46/1/35 41/4/35
f 47/45/36 48/48/36 51/49/36 50/44/36
f 47/45/37 52/46/37 49/47/37 48/48/37
f 26/49/38 25/44/38 50/44/38 51/49/38
f 45/45/39 33/46/39 52/46/39 47/45/39
f 42/48/40 26/49/40 51/49/40 48/48/40
f 34/47/41 42/48/41 48/48/41 49/47/41
f 58/26/42 57/25/42 63/25/42 64/26/42
f 57/41/43 54/41/43 60/41/43 63/41/43
f 28/26/44 27/25/44 57/25/44 58/26/44
f 7/38/45 28/38/45 58/38/45 55/38/45
f 35/6/46 36/8/46 56/8/46 53/6/46
f 5/41/47 35/6/47 53/6/47 54/41/47
f 62/8/48 61/38/48 131/38/48 132/8/48
f 61/38/49 64/38/49 134/38/49 131/38/49
f 53/6/50 56/8/50 62/8/50 59/6/50
f 55/38/51 58/38/51 64/38/51 61/38/51
f 56/8/52 55/38/52 61/38/52 62/8/52
f 54/41/53 53/6/53 59/6/53 60/41/53
f 22/37/54 12/12/54 10/9/54 21/16/54
f 38/11/55 11/21/55 84/21/55 83/11/55
f 29/39/56 9/39/56 82/39/56 85/39/56
f 12/12/57 38/11/57 83/11/57 88/12/57
f 24/32/58 23/31/58 71/31/58 72/32/58
f 22/37/59 21/16/59 69/16/59 70/37/59
f 20/15/60 19/34/60 67/34/60 68/15/60
f 18/33/61 17/36/61 65/36/61 66/33/61
f 17/35/62 24/32/62 72/32/62 65/35/62
f 23/31/63 22/37/63 70/37/63 71/31/63
f 21/16/64 20/15/64 68/15/64 69/16/64
f 19/34/65 18/33/65 66/33/65 67/34/65
f 66/33/66 65/36/66 73/36/66 74/33/66
f 65/35/67 72/32/67 80/32/67 73/35/67
f 71/31/68 70/37/68 78/37/68 79/31/68
f 69/16/69 68/15/69 76/15/69 77/16/69
f 67/34/70 66/33/70 74/33/70 75/34/70
f 72/32/71 71/31/71 79/31/71 80/32/71
f 70/37/72 69/16/72 77/16/72 78/37/72
f 68/15/73 67/34/73 75/34/73 76/15/73
f 74/33/74 73/35/74 80/32/74 79/31/74 78/37/74 77/16/74 76/15/74 75/34/74
f 85/39/75 82/39/75 90/39/75 93/39/75
f 88/12/76 83/11/76 91/11/76 96/12/76
f 83/11/77 84/21/77 92/21/77 91/11/77
f 30/28/78 29/27/78 85/27/78 86/28/78
f 10/9/79 12/12/79 88/12/79 87/9/79
f 37/10/80 10/9/80 87/9/80 81/10/80
f 11/21/81 30/21/81 86/21/81 84/21/81
f 9/39/82 37/10/82 81/10/82 82/39/82
f 92/21/83 94/21/83 102/21/83 100/21/83
f 89/10/84 95/9/84 103/9/84 97/10/84
f 95/9/85 96/12/85 104/12/85 103/9/85
f 86/28/86 85/27/86 93/27/86 94/28/86
f 82/39/87 81/10/87 89/10/87 90/39/87
f 87/9/88 88/12/88 96/12/88 95/9/88
f 81/10/89 87/9/89 95/9/89 89/10/89
f 84/21/90 86/21/90 94/21/90 92/21/90
f 97/10/91 103/9/91 104/12/91 99/11/91
f 98/39/91 97/10/91 99/11/91 100/21/91
f 102/21/92 101/39/92 98/39/92 100/21/92
f 91/11/93 92/21/93 100/21/93 99/11/93
f 96/12/93 91/11/93 99/11/93 104/12/93
f 93/39/94 90/39/94 98/39/94 101/39/94
f 94/28/95 93/27/95 101/27/95 102/28/95
f 90/39/84 89/10/84 97/10/84 98/39/84
f 111/22/96 106/22/96 114/22/96 119/22/96
f 105/14/97 109/13/97 117/13/97 113/14/97
f 106/22/97 105/14/97 113/14/97 114/22/97
f 39/14/98 14/13/98 109/13/98 105/14/98
f 13/22/98 39/14/98 105/14/98 106/22/98
f 40/18/99 15/42/99 107/42/99 110/18/99
f 16/17/99 40/18/99 110/18/99 108/17/99
f 15/42/100 32/42/100 112/42/100 107/42/100
f 117/13/101 116/17/101 124/17/101 125/13/101
f 120/30/102 119/29/102 127/29/102 128/30/102
f 115/42/103 120/42/103 128/42/103 123/42/103
f 110/18/104 107/42/104 115/42/104 118/18/104
f 108/17/104 110/18/104 118/18/104 116/17/104
f 107/42/105 112/42/105 120/42/105 115/42/105
f 112/30/106 111/29/106 119/29/106 120/30/106
f 109/13/107 108/17/107 116/17/107 117/13/107
f 121/14/108 125/13/108 124/17/108 126/18/108
f 122/22/109 123/42/109 128/42/109 127/22/109
f 122/22/108 121/14/108 126/18/108 123/42/108
f 114/22/110 113/14/110 121/14/110 122/22/110
f 113/14/110 117/13/110 125/13/110 121/14/110
f 119/22/111 114/22/111 122/22/111 127/22/111
f 118/18/112 115/42/112 123/42/112 126/18/112
f 116/17/112 118/18/112 126/18/112 124/17/112
f 130/41/113 131/38/113 134/38/113 133/41/113
f 130/41/114 129/6/114 132/8/114 131/38/114
f 60/41/115 59/6/115 129/6/115 130/41/115
f 63/41/116 60/41/116 130/41/116 133/41/116
f 64/26/117 63/25/117 133/25/117 134/26/117
f 59/6/118 62/8/118 132/8/118 129/6/118
